<svg width="233" height="71" viewBox="0 0 233 71" fill="none" xmlns="http://www.w3.org/2000/svg">
<path d="M30.432 51.6921H26.352L22.992 42.9081H8.64L5.28 51.6921H1.248L13.584 20.0121H18.144L30.432 51.6921ZM10.032 39.3081H21.6L15.792 23.7081L10.032 39.3081ZM35.9115 51.6921V27.6921H39.2715L39.6075 33.0681L38.9835 32.5401C39.4955 31.2601 40.1835 30.2361 41.0475 29.4681C41.9115 28.6681 42.9035 28.0921 44.0235 27.7401C45.1755 27.3881 46.3595 27.2121 47.5755 27.2121C49.3035 27.2121 50.8715 27.5481 52.2795 28.2201C53.6875 28.8601 54.8075 29.8521 55.6395 31.1961C56.5035 32.5401 56.9355 34.2521 56.9355 36.3321V51.6921H53.0955V37.6761C53.0955 35.0201 52.5195 33.1801 51.3675 32.1561C50.2475 31.1001 48.8555 30.5721 47.1915 30.5721C46.0395 30.5721 44.8875 30.8441 43.7355 31.3881C42.5835 31.9321 41.6235 32.8121 40.8555 34.0281C40.1195 35.2441 39.7515 36.8761 39.7515 38.9241V51.6921H35.9115ZM65.3903 51.6921V27.6921H68.7503L69.0863 33.0681L68.4623 32.5401C68.9743 31.2601 69.6623 30.2361 70.5263 29.4681C71.3903 28.6681 72.3823 28.0921 73.5023 27.7401C74.6543 27.3881 75.8383 27.2121 77.0543 27.2121C78.7823 27.2121 80.3503 27.5481 81.7583 28.2201C83.1663 28.8601 84.2863 29.8521 85.1183 31.1961C85.9823 32.5401 86.4143 34.2521 86.4143 36.3321V51.6921H82.5743V37.6761C82.5743 35.0201 81.9983 33.1801 80.8463 32.1561C79.7263 31.1001 78.3343 30.5721 76.6703 30.5721C75.5183 30.5721 74.3663 30.8441 73.2143 31.3881C72.0623 31.9321 71.1023 32.8121 70.3343 34.0281C69.5983 35.2441 69.2303 36.8761 69.2303 38.9241V51.6921H65.3903ZM119.676 52.1721C118.14 52.1721 116.684 51.8841 115.308 51.3081C113.964 50.7321 112.86 49.8041 111.996 48.5241C111.164 47.2121 110.748 45.5161 110.748 43.4361V27.6921H114.588V42.4281C114.588 44.8601 115.116 46.5401 116.172 47.4681C117.228 48.3641 118.716 48.8121 120.636 48.8121C121.532 48.8121 122.412 48.6681 123.276 48.3801C124.14 48.0601 124.908 47.5801 125.58 46.9401C126.284 46.2681 126.828 45.4201 127.212 44.3961C127.628 43.3721 127.836 42.1561 127.836 40.7481V27.6921H131.676V51.6921H128.316L128.076 48.0441C127.244 49.4841 126.108 50.5401 124.668 51.2121C123.26 51.8521 121.596 52.1721 119.676 52.1721ZM140.373 51.6921V27.6921H143.733L144.069 33.0681L143.445 32.5401C143.957 31.2601 144.645 30.2361 145.509 29.4681C146.373 28.6681 147.365 28.0921 148.485 27.7401C149.637 27.3881 150.821 27.2121 152.037 27.2121C153.765 27.2121 155.333 27.5481 156.741 28.2201C158.149 28.8601 159.269 29.8521 160.101 31.1961C160.965 32.5401 161.397 34.2521 161.397 36.3321V51.6921H157.557V37.6761C157.557 35.0201 156.981 33.1801 155.829 32.1561C154.709 31.1001 153.317 30.5721 151.653 30.5721C150.501 30.5721 149.349 30.8441 148.197 31.3881C147.045 31.9321 146.085 32.8121 145.317 34.0281C144.581 35.2441 144.213 36.8761 144.213 38.9241V51.6921H140.373ZM175.188 20.8761V45.0681C175.188 46.2521 175.524 47.1321 176.196 47.7081C176.868 48.2841 177.732 48.5721 178.788 48.5721C179.716 48.5721 180.516 48.4121 181.188 48.0921C181.86 47.7721 182.468 47.3401 183.012 46.7961L184.356 50.0121C183.62 50.6841 182.74 51.2121 181.716 51.5961C180.724 51.9801 179.572 52.1721 178.26 52.1721C177.044 52.1721 175.908 51.9641 174.852 51.5481C173.796 51.1001 172.948 50.4121 172.308 49.4841C171.7 48.5241 171.38 47.2761 171.348 45.7401V21.9321L175.188 20.8761ZM183.924 27.6921V31.0041H166.548V27.6921H183.924ZM189.393 51.6921V27.6921H192.513L193.041 31.6281C193.713 30.1561 194.689 29.0521 195.969 28.3161C197.281 27.5801 198.865 27.2121 200.721 27.2121C201.137 27.2121 201.585 27.2441 202.065 27.3081C202.577 27.3721 203.009 27.5001 203.361 27.6921L202.689 31.1961C202.337 31.0681 201.953 30.9721 201.537 30.9081C201.121 30.8441 200.529 30.8121 199.761 30.8121C198.769 30.8121 197.761 31.1001 196.737 31.6761C195.745 32.2521 194.913 33.1321 194.241 34.3161C193.569 35.4681 193.233 36.9401 193.233 38.7321V51.6921H189.393Z" fill="white"/>
<path d="M200.223 18.7721C200.738 19.0224 201.333 19.0603 201.878 18.8774C202.422 18.6946 202.871 18.306 203.127 17.7969L209.008 6.10136C209.264 5.59224 209.305 5.0039 209.123 4.46577C208.94 3.92764 208.549 3.4838 208.034 3.23188C207.52 2.97997 206.925 2.94061 206.38 3.12248C205.835 3.30435 205.385 3.69254 205.129 4.20166L199.249 15.9083C198.995 16.417 198.955 17.0038 199.138 17.5404C199.32 18.077 199.711 18.5198 200.223 18.7721Z" fill="white"/>
<path d="M226.341 41.4416L213.768 38.9402C213.227 38.8457 212.671 38.968 212.219 39.2809C211.768 39.5938 211.456 40.0724 211.351 40.6145C211.247 41.1565 211.357 41.7191 211.659 42.1818C211.96 42.6446 212.43 42.9709 212.966 43.091L225.54 45.5908C226.087 45.6996 226.654 45.5852 227.117 45.2729C227.579 44.9606 227.898 44.476 228.004 43.9256C228.11 43.3752 227.995 42.8041 227.683 42.338C227.371 41.8719 226.888 41.549 226.341 41.4402L226.341 41.4416Z" fill="white"/>
<path d="M227.44 20.9505C227.931 20.6897 228.297 20.2443 228.459 19.7124C228.621 19.1805 228.565 18.6055 228.304 18.1141C228.042 17.6226 227.597 17.2548 227.065 17.0917C226.534 16.9286 225.96 16.9835 225.47 17.2443L213.143 23.7884C212.9 23.9176 212.685 24.0934 212.51 24.3058C212.335 24.5182 212.204 24.7631 212.124 25.0265C212.044 25.2899 212.016 25.5666 212.043 25.8408C212.07 26.1151 212.15 26.3815 212.279 26.6248C212.409 26.8682 212.585 27.0837 212.797 27.2591C213.01 27.4345 213.254 27.5664 213.518 27.6472C213.781 27.7279 214.057 27.756 214.331 27.7299C214.605 27.7037 214.871 27.6238 215.114 27.4946L227.44 20.9505Z" fill="white"/>
<mask id="mask0_105_257" style="mask-type:alpha" maskUnits="userSpaceOnUse" x="85" y="15" width="33" height="56">
<rect x="85" y="15.6921" width="33" height="55" fill="#D9D9D9"/>
</mask>
<g mask="url(#mask0_105_257)">
<path d="M104.636 27.8319C103.24 24.6556 101.293 22.9027 99.1509 22.9007C98.4901 22.9035 97.8402 23.0674 97.2579 23.3781C97.1531 23.4074 97.0542 23.4546 96.9655 23.5176C96.8397 23.6068 84.2346 32.462 73.622 33.0741L68.7517 33.2976C67.0638 33.3541 65.4687 34.0766 64.3157 35.307C63.1628 36.5373 62.5461 38.1751 62.6007 39.8615C62.6589 41.5705 63.2835 43.1333 64.3624 44.2631C65.0776 45.0155 65.9874 45.5554 66.9904 45.8226C67.5638 45.9749 68.1564 46.0421 68.7491 46.0219L70.4339 45.9046L71.0069 56.7368C71.0341 57.2716 71.1704 57.7954 71.4075 58.2762C71.6445 58.7569 71.9774 59.1843 72.3856 59.5323C72.7937 59.8802 73.2686 60.1413 73.781 60.2995C74.2934 60.4577 74.8326 60.5096 75.3654 60.4522L77.4656 60.2316C78.2104 60.1532 78.917 59.8646 79.5028 59.3993C80.0885 58.934 80.529 58.3115 80.7728 57.6044C81.0167 56.8974 81.0537 56.1351 80.8796 55.4069C80.7054 54.6787 80.3274 54.0147 79.7896 53.4925L78.1879 51.938C77.8285 51.5886 77.6105 51.1192 77.5759 50.6199L77.2637 46.101C81.2996 46.8302 88.4975 48.7239 96.5587 53.583C97.0402 53.9579 97.5903 54.2351 98.1779 54.399C98.5088 54.4879 98.8498 54.533 99.1922 54.5332C101.335 54.5341 103.278 52.7882 104.665 49.6124C105.943 46.6881 106.644 42.8183 106.638 38.7204C106.633 34.6226 105.921 30.7587 104.636 27.8319ZM98.7661 43.0156C98.4754 42.8784 97.7776 41.6763 97.7746 39.5375C97.7717 37.3986 98.4676 36.1973 98.7579 36.0605C99.0479 36.1981 99.7465 37.3998 99.7492 39.5392C99.752 41.6786 99.0565 42.8787 98.7661 43.0156ZM95.8619 39.5357C95.8639 41.0342 96.1776 42.543 96.7865 43.5831L94.1313 44.3951C93.7861 42.5216 93.6142 40.6208 93.6177 38.7166C93.6162 37.6042 93.6699 36.5123 93.7744 35.4569L96.6062 35.8018C96.5726 35.8704 96.5391 35.9411 96.5064 36.0158C96.0893 36.9708 95.8596 38.2206 95.8619 39.5357ZM78.8604 55.4185C78.9629 55.6242 79.0298 55.8456 79.0585 56.0734C79.0913 56.3406 79.0706 56.6114 78.9977 56.8703C78.9248 57.1292 78.801 57.3709 78.6337 57.5814C78.4664 57.7919 78.2588 57.967 78.023 58.0965C77.7872 58.226 77.5278 58.3074 77.2601 58.3359L75.16 58.5559C74.8858 58.5846 74.6085 58.5572 74.3451 58.4754C74.0816 58.3936 73.8374 58.259 73.6275 58.0799C73.4176 57.9009 73.2463 57.681 73.1241 57.4338C73.0018 57.1866 72.9313 56.9173 72.9166 56.6422L72.799 54.4191L77.2061 53.6524L78.4564 54.8663C78.6213 55.0264 78.7579 55.2131 78.8604 55.4185ZM75.6662 50.7528C75.6942 51.1575 75.7849 51.5556 75.9348 51.9329L72.6971 52.4958L72.3409 45.7698L73.9008 45.6617C74.049 45.6702 74.5398 45.7055 75.3243 45.8043L75.6662 50.7528ZM80.97 44.9523C77.7235 44.1314 75.4025 43.8661 74.4312 43.7836C74.0704 43.1577 73.377 41.6541 73.3864 39.3639C73.3877 39.1196 73.3945 38.8737 73.4086 38.6342C73.4224 38.381 73.335 38.1324 73.1655 37.9432C72.996 37.754 72.7584 37.6396 72.5049 37.6252C72.2514 37.6109 72.0028 37.6977 71.8137 37.8665C71.6247 38.0354 71.5107 38.2725 71.4968 38.5257C71.4814 38.7993 71.4731 39.0792 71.4716 39.3578C71.4644 41.3429 71.904 42.8536 72.3347 43.8562L68.665 44.111C67.5115 44.1426 66.5016 43.7402 65.7436 42.9461C64.9855 42.1519 64.5543 41.0409 64.5126 39.8018C64.474 38.621 64.9059 37.4741 65.7134 36.6128C66.5209 35.7515 67.6382 35.2461 68.8201 35.2075L72.1562 35.0556C72.1374 35.1092 72.119 35.1641 72.1002 35.2202C72.0213 35.4608 72.0413 35.7232 72.1559 35.9495C72.2705 36.1758 72.4702 36.3476 72.7112 36.4271L72.7648 36.4415C73.0009 36.5038 73.2516 36.4738 73.4658 36.3575C73.68 36.2412 73.8414 36.0475 73.9171 35.816C74.0138 35.5184 74.1289 35.2272 74.2618 34.9441C78.8459 34.5757 84.1917 32.8383 90.1622 29.7742C91.4511 29.1126 92.6283 28.4606 93.6589 27.8611C92.3928 30.7808 91.6981 34.6325 91.7029 38.713C91.7103 42.8127 92.4213 46.68 93.7052 49.6091C93.7449 49.6994 93.7851 49.7878 93.8255 49.8757C88.6855 47.2234 84.1274 45.7512 80.97 44.9523ZM102.909 48.8533C101.86 51.2548 100.503 52.6318 99.187 52.6326C98.6832 52.632 98.1723 52.4282 97.6752 52.0435L97.6604 52.0319C96.8648 51.4098 96.1034 50.3218 95.4563 48.8479C95.094 48.0107 94.7937 47.1482 94.558 46.2673L98.9342 44.9273C100.729 44.7744 101.663 42.1442 101.659 39.5434C101.658 38.2292 101.426 36.9779 101.003 36.0208C100.318 34.4602 99.3696 34.1698 98.8229 34.1481L94.021 33.562C94.328 31.7133 94.8027 30.0228 95.429 28.5895C96.4786 26.1875 97.835 24.8104 99.1512 24.8102C99.3252 24.8108 99.4985 24.8343 99.6665 24.8801C100.816 25.188 101.964 26.504 102.882 28.5943C104.063 31.2851 104.715 34.8813 104.721 38.7238C104.727 42.5664 104.084 46.1639 102.909 48.8533Z" fill="white"/>
</g>
</svg>
