<svg width="113" height="108" viewBox="0 0 113 108" fill="none" xmlns="http://www.w3.org/2000/svg">
<path d="M66.757 12.1581C54.5052 25.4175 46.9989 32.3784 32.3489 43.9047L45.126 49.2399C45.126 49.2399 54.2286 40.6596 56.0388 42.0152C57.8491 43.3708 84.4672 67.8538 84.4672 67.8538L95.705 64.7878C95.705 64.7878 65.8339 35.2233 64.9682 32.9878C64.1026 30.7523 72.6357 24.0205 72.6357 24.0205L66.757 12.1581Z" fill="#0EBDF6"/>
<path d="M72.6216 5.17383L104.479 63.1037" stroke="#0EBDF6" stroke-width="9" stroke-linecap="round" stroke-linejoin="round"/>
<path fill-rule="evenodd" clip-rule="evenodd" d="M71.8497 95.0185L61.5504 107.147C50.78 97.0359 36.0575 83.1709 28.9507 76.0685C21.844 68.966 17.1219 58.7979 17.8307 55.0959C18.5394 51.3938 28.1664 46.3808 28.1664 46.3808L77.4119 68.4432L56.8595 75.116L49.6474 69.7682L43.686 72.0765L59.6133 87.7601L63.3391 86.3174L71.8497 95.0185ZM31.4973 60.5153L37.2191 66.4403L41.3175 64.8533L34.478 59.3612L31.4973 60.5153Z" fill="#0EBDF6"/>
<mask id="mask0_151_284" style="mask-type:alpha" maskUnits="userSpaceOnUse" x="6" y="55" width="32" height="32">
<circle cx="21.8766" cy="71.0907" r="15.6547" transform="rotate(143.833 21.8766 71.0907)" fill="white"/>
</mask>
<g mask="url(#mask0_151_284)">
<path d="M30.069 82.9079C30.5899 83.3211 30.58 84.1193 30.0432 84.5117L12.0625 97.6558C11.6167 97.9817 10.991 97.8845 10.6651 97.4387L-6.63167 73.7772C-6.95759 73.3313 -6.86037 72.7057 -6.41451 72.3798L11.5533 59.2451C12.094 58.8499 12.8633 59.0896 13.0945 59.7182C16.9921 70.3154 20.9849 75.7032 30.069 82.9079Z" fill="#0EBDF6"/>
</g>
<mask id="mask1_151_284" style="mask-type:alpha" maskUnits="userSpaceOnUse" x="82" y="17" width="27" height="26">
<circle cx="95.7604" cy="30.2199" r="12.7713" transform="rotate(-27.6504 95.7604 30.2199)" fill="white"/>
</mask>
<g mask="url(#mask1_151_284)">
<rect x="89.8335" y="18.9075" width="20.0692" height="25.5426" rx="1" transform="rotate(-27.6504 89.8335 18.9075)" fill="#0EBDF6"/>
</g>
</svg>
